<svg xmlns="http://www.w3.org/2000/svg" viewBox="0 0 64 64" role="img" aria-label="Crab">
  <defs>
    <linearGradient id="cg" x1="0" y1="0" x2="1" y2="1">
      <stop offset="0" stop-color="#1f7a5a"/>
      <stop offset="0.5" stop-color="#12a5a0"/>
      <stop offset="1" stop-color="#3aa0e0"/>
    </linearGradient>
  </defs>
  <g fill="none" stroke="url(#cg)" stroke-width="3.2" stroke-linecap="round" stroke-linejoin="round">
    <path d="M18 38 a14 11 0 0 1 28 0"/>
    <path d="M18 38 q14 9 28 0"/>
    <path d="M26 29 v-5"/>
    <path d="M38 29 v-5"/>
    <path d="M18 36 q-8 -1 -11 4"/>
    <path d="M7 40 l-4 -3 M7 40 l-1 5"/>
    <path d="M46 36 q8 -1 11 4"/>
    <path d="M57 40 l4 -3 M57 40 l1 5"/>
    <path d="M22 42 l-7 6"/>
    <path d="M25 44 l-5 8"/>
    <path d="M42 42 l7 6"/>
    <path d="M39 44 l5 8"/>
  </g>
  <circle cx="26" cy="22" r="1.8" fill="url(#cg)"/>
  <circle cx="38" cy="22" r="1.8" fill="url(#cg)"/>
</svg>
